<svg width="129" height="23" viewBox="0 0 129 23" fill="none" xmlns="http://www.w3.org/2000/svg">
<g clip-path="url(#clip0_225_70)">
<path d="M24.178 0H0V22.4H24.178V0ZM50.118 0H25.94V22.4H50.118V0ZM76.31 0H52.134V22.4H76.312V0H76.31ZM102.252 0H78.074V22.4H102.252V0Z" fill="#00B67A"/>
<path d="M128.443 0H104.266V22.4H128.443V0Z" fill="#C6B7E6"/>
<path d="M104.266 0H116.355V22.167H104.266V0Z" fill="#00B67A"/>
<path d="M11.8383 14.9334L15.6153 14.0004L17.1273 18.4334L11.8383 14.9334ZM20.4013 9.3334H13.8533L11.8383 3.7334L9.82334 9.3334H3.52734L8.81634 12.8334L6.80134 18.4334L12.0903 14.9334L15.3643 12.8334L20.4013 9.3334ZM38.0313 14.9334L41.8073 14.0004L43.3183 18.4334L38.0293 14.9334H38.0313ZM46.3413 9.3334H39.7933L37.7783 3.7334L35.7643 9.3334H29.2153L34.5053 12.8334L32.4893 18.4334L37.7793 14.9334L41.0523 12.8334L46.3413 9.3334ZM64.2233 14.9334L68.0013 14.0004L69.5123 18.4334L64.2233 14.9334ZM72.5343 9.3334H65.9863L63.9713 3.7334L61.9563 9.3334H55.4083L60.6983 12.8334L58.9343 18.4334L64.2233 14.9334L67.4973 12.8334L72.5343 9.3334ZM90.1643 14.9334L93.9413 14.0004L95.4523 18.4334L90.1643 14.9334ZM98.7273 9.3334H92.1783L90.1643 3.7334L88.1493 9.3334H81.6013L86.8893 12.8334L84.8753 18.4334L90.1643 14.9334L93.4383 12.8334L98.7273 9.3334ZM116.356 14.9334L120.134 14.0004L121.645 18.4334L116.356 14.9334ZM124.667 9.3334H118.119L116.104 3.7334L114.341 9.3334H107.793L113.082 12.8334L111.067 18.4334L116.356 14.9334L119.63 12.8334L124.667 9.3334Z" fill="white"/>
</g>
<defs>
<clipPath id="clip0_225_70">
<rect width="129" height="23" fill="white"/>
</clipPath>
</defs>
</svg>
