<svg width="126" height="190" viewBox="0 0 126 190" fill="none" xmlns="http://www.w3.org/2000/svg">
<path d="M0.70887 101.248C3.22005 89.9931 115.794 81.0367 99.0819 103.244C92.3961 112.127 79.9714 116.355 69.6338 118.912C61.7342 120.871 53.4785 121.946 45.3652 121.669C33.0055 121.152 21.0147 118.319 10.2016 112.135" stroke="#C2AF00" stroke-width="2" stroke-miterlimit="10" stroke-linecap="round" stroke-linejoin="round"/>
<path d="M-5.63609 114.406C-5.81919 114.108 -3.23429 114.875 -2.94809 114.982C-1.23299 115.719 0.382433 116.55 1.89861 117.473C6.72883 120.449 11.0499 124.182 15.071 128.197C26.751 140.128 37.9667 154.37 44.692 169.816C45.9463 172.767 51.2977 183.126 48.5814 186.232C44.8591 190.467 31.377 180.315 28.6449 178.186C11.3022 164.995 -2.97828 147.062 -6.87543 125.219" stroke="#C2AF00" stroke-width="2" stroke-miterlimit="10" stroke-linecap="round" stroke-linejoin="round"/>
<path d="M-11.9881 76.6791C-12.0814 76.5792 -11.6912 76.495 -11.5948 76.4985C-8.85773 75.6234 -6.12678 74.941 -3.47571 73.7709C2.21514 71.3485 7.81995 68.6313 13.141 65.7117C27.7263 57.6797 39.7328 45.8768 45.3063 29.8813C46.591 26.2416 49.9089 16.8559 46.9368 13.2657C43.2219 8.77729 31.421 17.3889 28.3572 19.3202C11.8415 30.0962 -4.19416 46.6088 -11.1223 65.4661" stroke="#C2AF00" stroke-width="2" stroke-miterlimit="10" stroke-linecap="round" stroke-linejoin="round"/>
</svg>
