<svg width="1920" height="792" viewBox="0 0 1920 792" fill="none" xmlns="http://www.w3.org/2000/svg">
<rect width="1920" height="792" fill="#1A1A1A"/>
<mask id="mask0_2160_12" style="mask-type:alpha" maskUnits="userSpaceOnUse" x="0" y="0" width="1920" height="792">
<rect width="1920" height="792" fill="#1A1A1A"/>
</mask>
<g mask="url(#mask0_2160_12)">
<g style="mix-blend-mode:luminosity" opacity="0.25">
<rect x="-7" y="2.36523" width="1918.82" height="1.02151" fill="white" fill-opacity="0.03"/>
<rect x="-7" y="12.5806" width="1918.82" height="1.02151" fill="white" fill-opacity="0.03"/>
<rect x="-7" y="22.7959" width="1918.82" height="1.02151" fill="white" fill-opacity="0.03"/>
<rect x="-7" y="33.0107" width="1918.82" height="1.02151" fill="white" fill-opacity="0.03"/>
<rect x="-7" y="43.2256" width="1918.82" height="1.02151" fill="white" fill-opacity="0.03"/>
<rect x="-7" y="53.4409" width="1918.82" height="1.02151" fill="white" fill-opacity="0.03"/>
<rect x="-7" y="63.6558" width="1918.82" height="1.02151" fill="white" fill-opacity="0.03"/>
<rect x="-7" y="73.8711" width="1918.82" height="1.02151" fill="white" fill-opacity="0.03"/>
<rect x="-7" y="84.0859" width="1918.82" height="1.02151" fill="white" fill-opacity="0.03"/>
<rect x="-7" y="94.3013" width="1918.82" height="1.02151" fill="white" fill-opacity="0.08"/>
<rect x="-7" y="104.516" width="1918.82" height="1.02151" fill="white" fill-opacity="0.03"/>
<rect x="-7" y="114.731" width="1918.82" height="1.02151" fill="white" fill-opacity="0.03"/>
<rect x="-7" y="124.946" width="1918.82" height="1.02151" fill="white" fill-opacity="0.03"/>
<rect x="-7" y="135.161" width="1918.82" height="1.02151" fill="white" fill-opacity="0.03"/>
<rect x="-7" y="145.376" width="1918.82" height="1.02151" fill="white" fill-opacity="0.03"/>
<rect x="-7" y="155.591" width="1918.82" height="1.02151" fill="white" fill-opacity="0.03"/>
<rect x="-7" y="165.807" width="1918.82" height="1.02151" fill="white" fill-opacity="0.03"/>
<rect x="-7" y="176.021" width="1918.82" height="1.02151" fill="white" fill-opacity="0.03"/>
<rect x="-7" y="186.237" width="1918.82" height="1.02151" fill="white" fill-opacity="0.03"/>
<rect x="-7" y="196.452" width="1918.82" height="1.02151" fill="white" fill-opacity="0.08"/>
<rect x="-7" y="206.667" width="1918.82" height="1.02151" fill="white" fill-opacity="0.03"/>
<rect x="-7" y="216.882" width="1918.82" height="1.02151" fill="white" fill-opacity="0.03"/>
<rect x="-7" y="227.097" width="1918.82" height="1.02151" fill="white" fill-opacity="0.03"/>
<rect x="-7" y="237.312" width="1918.82" height="1.02151" fill="white" fill-opacity="0.03"/>
<rect x="-7" y="247.527" width="1918.82" height="1.02151" fill="white" fill-opacity="0.03"/>
<rect x="-7" y="257.742" width="1918.82" height="1.02151" fill="white" fill-opacity="0.03"/>
<rect x="-7" y="267.957" width="1918.82" height="1.02151" fill="white" fill-opacity="0.03"/>
<rect x="-7" y="278.172" width="1918.82" height="1.02151" fill="white" fill-opacity="0.03"/>
<rect x="-7" y="288.387" width="1918.82" height="1.02151" fill="white" fill-opacity="0.03"/>
<rect x="-7" y="298.602" width="1918.82" height="1.02151" fill="white" fill-opacity="0.08"/>
<rect x="-7" y="308.817" width="1918.82" height="1.02151" fill="white" fill-opacity="0.03"/>
<rect x="-7" y="319.032" width="1918.82" height="1.02151" fill="white" fill-opacity="0.03"/>
<rect x="-7" y="329.248" width="1918.82" height="1.02151" fill="white" fill-opacity="0.03"/>
<rect x="-7" y="339.462" width="1918.82" height="1.02151" fill="white" fill-opacity="0.03"/>
<rect x="-7" y="349.677" width="1918.82" height="1.02151" fill="white" fill-opacity="0.03"/>
<rect x="-7" y="359.893" width="1918.82" height="1.02151" fill="white" fill-opacity="0.03"/>
<rect x="-7" y="370.107" width="1918.82" height="1.02151" fill="white" fill-opacity="0.03"/>
<rect x="-7" y="380.323" width="1918.82" height="1.02151" fill="white" fill-opacity="0.03"/>
<rect x="-7" y="390.538" width="1918.82" height="1.02151" fill="white" fill-opacity="0.03"/>
<rect x="-7" y="400.752" width="1918.82" height="1.02151" fill="white" fill-opacity="0.08"/>
<rect x="-7" y="410.968" width="1918.82" height="1.02151" fill="white" fill-opacity="0.03"/>
<rect x="-7" y="421.183" width="1918.82" height="1.02151" fill="white" fill-opacity="0.03"/>
<rect x="-7" y="431.398" width="1918.82" height="1.02151" fill="white" fill-opacity="0.03"/>
<rect x="-7" y="441.613" width="1918.82" height="1.02151" fill="white" fill-opacity="0.03"/>
<rect x="-7" y="451.828" width="1918.82" height="1.02151" fill="white" fill-opacity="0.03"/>
<rect x="-7" y="462.043" width="1918.82" height="1.02151" fill="white" fill-opacity="0.03"/>
<rect x="-7" y="472.258" width="1918.82" height="1.02151" fill="white" fill-opacity="0.03"/>
<rect x="-7" y="482.473" width="1918.82" height="1.02151" fill="white" fill-opacity="0.03"/>
<rect x="-7" y="492.688" width="1918.82" height="1.02151" fill="white" fill-opacity="0.03"/>
<rect x="-7" y="502.903" width="1918.82" height="1.02151" fill="white" fill-opacity="0.08"/>
<rect x="-7" y="513.118" width="1918.82" height="1.02151" fill="white" fill-opacity="0.03"/>
<rect x="-7" y="523.333" width="1918.82" height="1.02151" fill="white" fill-opacity="0.03"/>
<rect x="-7" y="533.549" width="1918.82" height="1.02151" fill="white" fill-opacity="0.03"/>
<rect x="-7" y="543.764" width="1918.82" height="1.02151" fill="white" fill-opacity="0.03"/>
<rect x="-7" y="553.979" width="1918.82" height="1.02151" fill="white" fill-opacity="0.03"/>
<rect x="-7" y="564.193" width="1918.82" height="1.02151" fill="white" fill-opacity="0.03"/>
<rect x="-7" y="574.408" width="1918.82" height="1.02151" fill="white" fill-opacity="0.03"/>
<rect x="-7" y="584.623" width="1918.82" height="1.02151" fill="white" fill-opacity="0.03"/>
<rect x="-7" y="594.839" width="1918.82" height="1.02151" fill="white" fill-opacity="0.03"/>
<rect x="-7" y="605.054" width="1918.82" height="1.02151" fill="white" fill-opacity="0.08"/>
<rect x="-7" y="615.269" width="1918.82" height="1.02151" fill="white" fill-opacity="0.03"/>
<rect x="-7" y="625.483" width="1918.82" height="1.02151" fill="white" fill-opacity="0.03"/>
<rect x="-7" y="635.699" width="1918.82" height="1.02151" fill="white" fill-opacity="0.03"/>
<rect x="-7" y="645.914" width="1918.82" height="1.02151" fill="white" fill-opacity="0.03"/>
<rect x="-7" y="656.129" width="1918.82" height="1.02151" fill="white" fill-opacity="0.03"/>
<rect x="-7" y="666.344" width="1918.82" height="1.02151" fill="white" fill-opacity="0.03"/>
<rect x="-7" y="676.56" width="1918.82" height="1.02151" fill="white" fill-opacity="0.03"/>
<rect x="-7" y="686.774" width="1918.82" height="1.02151" fill="white" fill-opacity="0.03"/>
<rect x="-7" y="696.989" width="1918.82" height="1.02151" fill="white" fill-opacity="0.03"/>
<rect x="-7" y="707.204" width="1918.82" height="1.02151" fill="white" fill-opacity="0.08"/>
<rect x="-7" y="717.419" width="1918.82" height="1.02151" fill="white" fill-opacity="0.03"/>
<rect x="-7" y="727.635" width="1918.82" height="1.02151" fill="white" fill-opacity="0.03"/>
<rect x="-7" y="737.85" width="1918.82" height="1.02151" fill="white" fill-opacity="0.03"/>
<rect x="-7" y="748.064" width="1918.82" height="1.02151" fill="white" fill-opacity="0.03"/>
<rect x="-7" y="758.279" width="1918.82" height="1.02151" fill="white" fill-opacity="0.03"/>
<rect x="-7" y="768.494" width="1918.82" height="1.02151" fill="white" fill-opacity="0.03"/>
<rect x="-7" y="778.71" width="1918.82" height="1.02151" fill="white" fill-opacity="0.03"/>
<rect x="-7" y="788.925" width="1918.82" height="1.02151" fill="white" fill-opacity="0.03"/>
<rect x="4.84766" y="-110" width="1.18519" height="950" fill="white" fill-opacity="0.03"/>
<rect x="16.6875" y="-110" width="1.18519" height="950" fill="white" fill-opacity="0.03"/>
<rect x="28.5371" y="-110" width="1.18519" height="950" fill="white" fill-opacity="0.03"/>
<rect x="40.377" y="-110" width="1.18519" height="950" fill="white" fill-opacity="0.03"/>
<rect x="52.2207" y="-110" width="1.18519" height="950" fill="white" fill-opacity="0.03"/>
<rect x="64.0664" y="-110" width="1.18519" height="950" fill="white" fill-opacity="0.03"/>
<rect x="75.9121" y="-110" width="1.18519" height="950" fill="white" fill-opacity="0.03"/>
<rect x="87.7578" y="-110" width="1.18519" height="950" fill="white" fill-opacity="0.03"/>
<rect x="99.5996" y="-110" width="1.18519" height="950" fill="white" fill-opacity="0.03"/>
<rect x="111.445" y="-110" width="1.18519" height="950" fill="white" fill-opacity="0.08"/>
<rect x="123.289" y="-110" width="1.18519" height="950" fill="white" fill-opacity="0.03"/>
<rect x="135.133" y="-110" width="1.18519" height="950" fill="white" fill-opacity="0.03"/>
<rect x="146.982" y="-110" width="1.18519" height="950" fill="white" fill-opacity="0.03"/>
<rect x="158.822" y="-110" width="1.18519" height="950" fill="white" fill-opacity="0.03"/>
<rect x="170.67" y="-110" width="1.18519" height="950" fill="white" fill-opacity="0.03"/>
<rect x="182.51" y="-110" width="1.18519" height="950" fill="white" fill-opacity="0.03"/>
<rect x="194.359" y="-110" width="1.18519" height="950" fill="white" fill-opacity="0.03"/>
<rect x="206.203" y="-110" width="1.18519" height="950" fill="white" fill-opacity="0.03"/>
<rect x="218.047" y="-110" width="1.18519" height="950" fill="white" fill-opacity="0.03"/>
<rect x="229.891" y="-110" width="1.18519" height="950" fill="white" fill-opacity="0.08"/>
<rect x="241.734" y="-110" width="1.18519" height="950" fill="white" fill-opacity="0.03"/>
<rect x="253.582" y="-110" width="1.18519" height="950" fill="white" fill-opacity="0.03"/>
<rect x="265.426" y="-110" width="1.18519" height="950" fill="white" fill-opacity="0.03"/>
<rect x="277.268" y="-110" width="1.18519" height="950" fill="white" fill-opacity="0.03"/>
<rect x="289.117" y="-110" width="1.18519" height="950" fill="white" fill-opacity="0.03"/>
<rect x="300.959" y="-110" width="1.18519" height="950" fill="white" fill-opacity="0.03"/>
<rect x="312.805" y="-110" width="1.18519" height="950" fill="white" fill-opacity="0.03"/>
<rect x="324.646" y="-110" width="1.18519" height="950" fill="white" fill-opacity="0.03"/>
<rect x="336.492" y="-110" width="1.18519" height="950" fill="white" fill-opacity="0.03"/>
<rect x="348.336" y="-110" width="1.18519" height="950" fill="white" fill-opacity="0.08"/>
<rect x="360.18" y="-110" width="1.18519" height="950" fill="white" fill-opacity="0.03"/>
<rect x="372.025" y="-110" width="1.18519" height="950" fill="white" fill-opacity="0.03"/>
<rect x="383.867" y="-110" width="1.18519" height="950" fill="white" fill-opacity="0.03"/>
<rect x="395.715" y="-110" width="1.18519" height="950" fill="white" fill-opacity="0.03"/>
<rect x="407.559" y="-110" width="1.18519" height="950" fill="white" fill-opacity="0.03"/>
<rect x="419.402" y="-110" width="1.18519" height="950" fill="white" fill-opacity="0.03"/>
<rect x="431.25" y="-110" width="1.18519" height="950" fill="white" fill-opacity="0.03"/>
<rect x="443.092" y="-110" width="1.18519" height="950" fill="white" fill-opacity="0.03"/>
<rect x="454.938" y="-110" width="1.18519" height="950" fill="white" fill-opacity="0.03"/>
<rect x="466.781" y="-110" width="1.18519" height="950" fill="white" fill-opacity="0.08"/>
<rect x="478.625" y="-110" width="1.18519" height="950" fill="white" fill-opacity="0.03"/>
<rect x="490.471" y="-110" width="1.18519" height="950" fill="white" fill-opacity="0.03"/>
<rect x="502.312" y="-110" width="1.18519" height="950" fill="white" fill-opacity="0.03"/>
<rect x="514.162" y="-110" width="1.18519" height="950" fill="white" fill-opacity="0.03"/>
<rect x="526.002" y="-110" width="1.18519" height="950" fill="white" fill-opacity="0.03"/>
<rect x="537.85" y="-110" width="1.18519" height="950" fill="white" fill-opacity="0.03"/>
<rect x="549.695" y="-110" width="1.18519" height="950" fill="white" fill-opacity="0.03"/>
<rect x="561.537" y="-110" width="1.18519" height="950" fill="white" fill-opacity="0.03"/>
<rect x="573.383" y="-110" width="1.18519" height="950" fill="white" fill-opacity="0.03"/>
<rect x="585.227" y="-110" width="1.18519" height="950" fill="white" fill-opacity="0.08"/>
<rect x="597.07" y="-110" width="1.18519" height="950" fill="white" fill-opacity="0.03"/>
<rect x="608.918" y="-110" width="1.18519" height="950" fill="white" fill-opacity="0.03"/>
<rect x="620.762" y="-110" width="1.18519" height="950" fill="white" fill-opacity="0.03"/>
<rect x="632.605" y="-110" width="1.18519" height="950" fill="white" fill-opacity="0.03"/>
<rect x="644.447" y="-110" width="1.18519" height="950" fill="white" fill-opacity="0.03"/>
<rect x="656.295" y="-110" width="1.18519" height="950" fill="white" fill-opacity="0.03"/>
<rect x="668.139" y="-110" width="1.18519" height="950" fill="white" fill-opacity="0.03"/>
<rect x="679.984" y="-110" width="1.18519" height="950" fill="white" fill-opacity="0.03"/>
<rect x="691.83" y="-110" width="1.18519" height="950" fill="white" fill-opacity="0.03"/>
<rect x="703.672" y="-110" width="1.18519" height="950" fill="white" fill-opacity="0.08"/>
<rect x="715.518" y="-110" width="1.18519" height="950" fill="white" fill-opacity="0.03"/>
<rect x="727.359" y="-110" width="1.18519" height="950" fill="white" fill-opacity="0.03"/>
<rect x="739.205" y="-110" width="1.18519" height="950" fill="white" fill-opacity="0.03"/>
<rect x="751.051" y="-110" width="1.18519" height="950" fill="white" fill-opacity="0.03"/>
<rect x="762.896" y="-110" width="1.18519" height="950" fill="white" fill-opacity="0.03"/>
<rect x="774.742" y="-110" width="1.18519" height="950" fill="white" fill-opacity="0.03"/>
<rect x="786.582" y="-110" width="1.18519" height="950" fill="white" fill-opacity="0.03"/>
<rect x="798.43" y="-110" width="1.18519" height="950" fill="white" fill-opacity="0.03"/>
<rect x="810.275" y="-110" width="1.18519" height="950" fill="white" fill-opacity="0.03"/>
<rect x="822.117" y="-110" width="1.18519" height="950" fill="white" fill-opacity="0.08"/>
<rect x="833.963" y="-110" width="1.18519" height="950" fill="white" fill-opacity="0.03"/>
<rect x="845.809" y="-110" width="1.18519" height="950" fill="white" fill-opacity="0.03"/>
<rect x="857.65" y="-110" width="1.18519" height="950" fill="white" fill-opacity="0.03"/>
<rect x="869.494" y="-110" width="1.18519" height="950" fill="white" fill-opacity="0.03"/>
<rect x="881.342" y="-110" width="1.18519" height="950" fill="white" fill-opacity="0.03"/>
<rect x="893.184" y="-110" width="1.18519" height="950" fill="white" fill-opacity="0.03"/>
<rect x="905.029" y="-110" width="1.18519" height="950" fill="white" fill-opacity="0.03"/>
<rect x="916.875" y="-110" width="1.18519" height="950" fill="white" fill-opacity="0.03"/>
<rect x="928.715" y="-110" width="1.18519" height="950" fill="white" fill-opacity="0.03"/>
<rect x="940.564" y="-110" width="1.18519" height="950" fill="white" fill-opacity="0.08"/>
<rect x="952.408" y="-110" width="1.18519" height="950" fill="white" fill-opacity="0.03"/>
<rect x="964.252" y="-110" width="1.18519" height="950" fill="white" fill-opacity="0.03"/>
<rect x="976.098" y="-110" width="1.18519" height="950" fill="white" fill-opacity="0.03"/>
<rect x="987.941" y="-110" width="1.18519" height="950" fill="white" fill-opacity="0.03"/>
<rect x="999.787" y="-110" width="1.18519" height="950" fill="white" fill-opacity="0.03"/>
<rect x="1011.63" y="-110" width="1.18519" height="950" fill="white" fill-opacity="0.03"/>
<rect x="1023.48" y="-110" width="1.18519" height="950" fill="white" fill-opacity="0.03"/>
<rect x="1035.32" y="-110" width="1.18519" height="950" fill="white" fill-opacity="0.03"/>
<rect x="1047.16" y="-110" width="1.18519" height="950" fill="white" fill-opacity="0.03"/>
<rect x="1059.01" y="-110" width="1.18519" height="950" fill="white" fill-opacity="0.08"/>
<rect x="1070.85" y="-110" width="1.18519" height="950" fill="white" fill-opacity="0.03"/>
<rect x="1082.7" y="-110" width="1.18519" height="950" fill="white" fill-opacity="0.03"/>
<rect x="1094.54" y="-110" width="1.18519" height="950" fill="white" fill-opacity="0.03"/>
<rect x="1106.38" y="-110" width="1.18519" height="950" fill="white" fill-opacity="0.03"/>
<rect x="1118.23" y="-110" width="1.18519" height="950" fill="white" fill-opacity="0.03"/>
<rect x="1130.08" y="-110" width="1.18519" height="950" fill="white" fill-opacity="0.03"/>
<rect x="1141.92" y="-110" width="1.18519" height="950" fill="white" fill-opacity="0.03"/>
<rect x="1153.76" y="-110" width="1.18519" height="950" fill="white" fill-opacity="0.03"/>
<rect x="1165.61" y="-110" width="1.18519" height="950" fill="white" fill-opacity="0.03"/>
<rect x="1177.46" y="-110" width="1.18519" height="950" fill="white" fill-opacity="0.08"/>
<rect x="1189.3" y="-110" width="1.18519" height="950" fill="white" fill-opacity="0.03"/>
<rect x="1201.15" y="-110" width="1.18519" height="950" fill="white" fill-opacity="0.03"/>
<rect x="1212.99" y="-110" width="1.18519" height="950" fill="white" fill-opacity="0.03"/>
<rect x="1224.83" y="-110" width="1.18519" height="950" fill="white" fill-opacity="0.03"/>
<rect x="1236.68" y="-110" width="1.18519" height="950" fill="white" fill-opacity="0.03"/>
<rect x="1248.52" y="-110" width="1.18519" height="950" fill="white" fill-opacity="0.03"/>
<rect x="1260.37" y="-110" width="1.18519" height="950" fill="white" fill-opacity="0.03"/>
<rect x="1272.21" y="-110" width="1.18519" height="950" fill="white" fill-opacity="0.03"/>
<rect x="1284.05" y="-110" width="1.18519" height="950" fill="white" fill-opacity="0.03"/>
<rect x="1295.9" y="-110" width="1.18519" height="950" fill="white" fill-opacity="0.08"/>
<rect x="1307.74" y="-110" width="1.18519" height="950" fill="white" fill-opacity="0.03"/>
<rect x="1319.59" y="-110" width="1.18519" height="950" fill="white" fill-opacity="0.03"/>
<rect x="1331.43" y="-110" width="1.18519" height="950" fill="white" fill-opacity="0.03"/>
<rect x="1343.28" y="-110" width="1.18519" height="950" fill="white" fill-opacity="0.03"/>
<rect x="1355.12" y="-110" width="1.18519" height="950" fill="white" fill-opacity="0.03"/>
<rect x="1366.97" y="-110" width="1.18519" height="950" fill="white" fill-opacity="0.03"/>
<rect x="1378.81" y="-110" width="1.18519" height="950" fill="white" fill-opacity="0.03"/>
<rect x="1390.66" y="-110" width="1.18519" height="950" fill="white" fill-opacity="0.03"/>
<rect x="1402.5" y="-110" width="1.18519" height="950" fill="white" fill-opacity="0.03"/>
<rect x="1414.35" y="-110" width="1.18519" height="950" fill="white" fill-opacity="0.08"/>
<rect x="1426.19" y="-110" width="1.18519" height="950" fill="white" fill-opacity="0.03"/>
<rect x="1438.04" y="-110" width="1.18519" height="950" fill="white" fill-opacity="0.03"/>
<rect x="1449.88" y="-110" width="1.18519" height="950" fill="white" fill-opacity="0.03"/>
<rect x="1461.72" y="-110" width="1.18519" height="950" fill="white" fill-opacity="0.03"/>
<rect x="1473.56" y="-110" width="1.18519" height="950" fill="white" fill-opacity="0.03"/>
<rect x="1485.41" y="-110" width="1.18519" height="950" fill="white" fill-opacity="0.03"/>
<rect x="1497.26" y="-110" width="1.18519" height="950" fill="white" fill-opacity="0.03"/>
<rect x="1509.1" y="-110" width="1.18519" height="950" fill="white" fill-opacity="0.03"/>
<rect x="1520.95" y="-110" width="1.18519" height="950" fill="white" fill-opacity="0.03"/>
<rect x="1532.79" y="-110" width="1.18519" height="950" fill="white" fill-opacity="0.08"/>
<rect x="1544.63" y="-110" width="1.18519" height="950" fill="white" fill-opacity="0.03"/>
<rect x="1556.48" y="-110" width="1.18519" height="950" fill="white" fill-opacity="0.03"/>
<rect x="1568.33" y="-110" width="1.18519" height="950" fill="white" fill-opacity="0.03"/>
<rect x="1580.17" y="-110" width="1.18519" height="950" fill="white" fill-opacity="0.03"/>
<rect x="1592.01" y="-110" width="1.18519" height="950" fill="white" fill-opacity="0.03"/>
<rect x="1603.86" y="-110" width="1.18519" height="950" fill="white" fill-opacity="0.03"/>
<rect x="1615.7" y="-110" width="1.18519" height="950" fill="white" fill-opacity="0.03"/>
<rect x="1627.54" y="-110" width="1.18519" height="950" fill="white" fill-opacity="0.03"/>
<rect x="1639.39" y="-110" width="1.18519" height="950" fill="white" fill-opacity="0.03"/>
<rect x="1651.23" y="-110" width="1.18519" height="950" fill="white" fill-opacity="0.08"/>
<rect x="1663.08" y="-110" width="1.18519" height="950" fill="white" fill-opacity="0.03"/>
<rect x="1674.93" y="-110" width="1.18519" height="950" fill="white" fill-opacity="0.03"/>
<rect x="1686.77" y="-110" width="1.18519" height="950" fill="white" fill-opacity="0.03"/>
<rect x="1698.61" y="-110" width="1.18519" height="950" fill="white" fill-opacity="0.03"/>
<rect x="1710.46" y="-110" width="1.18519" height="950" fill="white" fill-opacity="0.03"/>
<rect x="1722.3" y="-110" width="1.18519" height="950" fill="white" fill-opacity="0.03"/>
<rect x="1734.15" y="-110" width="1.18519" height="950" fill="white" fill-opacity="0.03"/>
<rect x="1745.99" y="-110" width="1.18519" height="950" fill="white" fill-opacity="0.03"/>
<rect x="1757.84" y="-110" width="1.18519" height="950" fill="white" fill-opacity="0.03"/>
<rect x="1769.68" y="-110" width="1.18519" height="950" fill="white" fill-opacity="0.08"/>
<rect x="1781.53" y="-110" width="1.18519" height="950" fill="white" fill-opacity="0.03"/>
<rect x="1793.37" y="-110" width="1.18519" height="950" fill="white" fill-opacity="0.03"/>
<rect x="1805.21" y="-110" width="1.18519" height="950" fill="white" fill-opacity="0.03"/>
<rect x="1817.06" y="-110" width="1.18519" height="950" fill="white" fill-opacity="0.03"/>
<rect x="1828.9" y="-110" width="1.18519" height="950" fill="white" fill-opacity="0.03"/>
<rect x="1840.75" y="-110" width="1.18519" height="950" fill="white" fill-opacity="0.03"/>
<rect x="1852.59" y="-110" width="1.18519" height="950" fill="white" fill-opacity="0.03"/>
<rect x="1864.44" y="-110" width="1.18519" height="950" fill="white" fill-opacity="0.03"/>
<rect x="1876.28" y="-110" width="1.18519" height="950" fill="white" fill-opacity="0.03"/>
<rect x="1888.13" y="-110" width="1.18519" height="950" fill="white" fill-opacity="0.03"/>
<rect x="1899.97" y="-110" width="1.18519" height="950" fill="white" fill-opacity="0.03"/>
<rect x="1911.81" y="-110" width="1.18519" height="950" fill="white" fill-opacity="0.03"/>
</g>
</g>
</svg>
